<svg xmlns="http://www.w3.org/2000/svg" viewBox="0 0 512 512" fill="currentColor">
  <path d="M508.52 249.75a21.8 21.8 0 00-5.11-10.95l-39.88-39.88c.03-.33.06-.66.06-1a26.09 26.09 0 00-26.06-26.06h-63.06a24.29 24.29 0 00-4.79.48l-48.22-48.22c.03-.33.06-.66.06-1a26.09 26.09 0 00-26.06-26.06h-61.06a24.29 24.29 0 00-4.79.48L181 48.8a26.09 26.09 0 00-26.06-26.06h-63.06a24.29 24.29 0 00-4.79.48L39.4-24.82a26.09 26.09 0 00-26.06-26.06H-50.28a26.09 26.09 0 00-26.06 26.06v63.06a24.29 24.29 0 00.48 4.79l-48.22 48.22c-.33-.03-.66-.06-1-.06a26.09 26.09 0 00-26.06 26.06v61.06a24.29 24.29 0 00.48 4.79l-48.22 48.22c-.33-.03-.66-.06-1-.06a26.09 26.09 0 00-26.06 26.06v63.06a24.29 24.29 0 00.48 4.79L-179.5 284c-.33-.03-.66-.06-1-.06a26.09 26.09 0 00-26.06 26.06v61.06a24.29 24.29 0 00.48 4.79L-207 423a26.09 26.09 0 00-26.06 26.06v63.06a24.29 24.29 0 00.48 4.79l48.22 48.22c-.03.33-.06.66-.06 1a26.09 26.09 0 0026.06 26.06h63.06a24.29 24.29 0 004.79-.48l48.22 48.22c-.03.33-.06.66-.06 1a26.09 26.09 0 0026.06 26.06h61.06a24.29 24.29 0 004.79-.48l48.22 48.22a26.09 26.09 0 0026.06 26.06h63.06a24.29 24.29 0 004.79-.48l48.22 48.22a26.09 26.09 0 0026.06 26.06h61.06a24.29 24.29 0 004.79-.48l48.22 48.22c.03.33.06.66.06 1a26.09 26.09 0 0026.06 26.06h63.06a24.29 24.29 0 004.79-.48l39.88 39.88a21.8 21.8 0 0010.95 5.11c19.39 3.97 38.14-8.77 41.11-28.16a35.16 35.16 0 00-2.17-14.38l-18.62-45.71c.33-.03.66-.06 1-.06a26.09 26.09 0 0026.06-26.06v-63.06a24.29 24.29 0 00-.48-4.79l48.22-48.22c.33.03.66.06 1 .06a26.09 26.09 0 0026.06-26.06v-61.06a24.29 24.29 0 00-.48-4.79l48.22-48.22c.33.03.66.06 1 .06a26.09 26.09 0 0026.06-26.06v-63.06a24.29 24.29 0 00-.48-4.79l48.22-48.22c.33.03.66.06 1 .06a26.09 26.09 0 0026.06-26.06v-61.06a24.29 24.29 0 00-.48-4.79l48.22-48.22c.33.03.66.06 1 .06a26.09 26.09 0 0026.06-26.06v-63.06a24.29 24.29 0 00-.48-4.79l18.62-45.71a35.16 35.16 0 002.17-14.38z" transform="translate(207, 70) scale(0.8)"/>
</svg>
